<svg width="50" height="50" viewBox="0 0 50 50" fill="none" xmlns="http://www.w3.org/2000/svg">
<rect width="50" height="50" rx="25" fill="white"/>
<g clip-path="url(#clip0_623_6840)">
<path d="M22.1099 26.8901C20.01 24.7902 19.5359 22.6904 19.4289 21.8491C19.399 21.6164 19.4791 21.3831 19.6455 21.2179L21.3448 19.5193C21.5948 19.2695 21.6391 18.8802 21.4518 18.5805L18.7462 14.3793C18.5389 14.0475 18.1133 13.9277 17.7634 14.1028L13.4199 16.1484C13.1369 16.2877 12.9705 16.5883 13.0026 16.9021C13.2302 19.0642 14.1728 24.3791 19.3959 29.6025C24.619 34.826 29.9332 35.7682 32.0964 35.9958C32.4101 36.0279 32.7107 35.8615 32.8501 35.5786L34.8957 31.2351C35.0701 30.886 34.9511 30.4615 34.6207 30.2538L30.4194 27.549C30.12 27.3614 29.7306 27.4054 29.4806 27.6552L27.7821 29.3545C27.6168 29.5209 27.3835 29.6009 27.1509 29.5711C26.3096 29.4641 24.2097 28.99 22.1099 26.8901Z" fill="#0D4C93"/>
<path d="M30.4483 25.7586C30.0293 25.7586 29.6896 25.419 29.6896 25C29.6861 21.8591 27.1408 19.3139 24 19.3103C23.581 19.3103 23.2414 18.9707 23.2414 18.5517C23.2414 18.1327 23.581 17.7931 24 17.7931C27.9784 17.7975 31.2025 21.0215 31.2069 25C31.2069 25.419 30.8672 25.7586 30.4483 25.7586Z" fill="#0D4C93"/>
<path d="M34.2414 25.7586C33.8224 25.7586 33.4827 25.419 33.4827 25C33.4769 19.7652 29.2347 15.5231 24 15.5172C23.581 15.5172 23.2414 15.1776 23.2414 14.7586C23.2414 14.3396 23.581 14 24 14C30.0723 14.0067 34.9933 18.9276 35 25C35 25.2012 34.9201 25.3942 34.7778 25.5364C34.6355 25.6787 34.4426 25.7586 34.2414 25.7586Z" fill="#0D4C93"/>
</g>
<defs>
<clipPath id="clip0_623_6840">
<rect width="22" height="22" fill="white" transform="translate(13 14)"/>
</clipPath>
</defs>
</svg>
