<svg width="50" height="50" viewBox="0 0 50 50" fill="none" xmlns="http://www.w3.org/2000/svg">
<rect width="50" height="50" rx="25" fill="white"/>
<path d="M24.5 13C19.5076 13 15.4459 17.0616 15.4459 22.054C15.4459 28.2497 23.5484 37.3454 23.8934 37.7295C24.2174 38.0904 24.7832 38.0898 25.1066 37.7295C25.4516 37.3454 33.554 28.2497 33.554 22.054C33.554 17.0616 29.4924 13 24.5 13ZM24.5 26.6093C21.9882 26.6093 19.9447 24.5658 19.9447 22.054C19.9447 19.5422 21.9882 17.4987 24.5 17.4987C27.0118 17.4987 29.0552 19.5422 29.0552 22.0541C29.0552 24.5659 27.0118 26.6093 24.5 26.6093Z" fill="#0D4C93"/>
</svg>
