<svg width="50" height="50" viewBox="0 0 50 50" fill="none" xmlns="http://www.w3.org/2000/svg">
<rect width="50" height="50" rx="25" fill="white"/>
<g clip-path="url(#clip0_5004_2)">
<path d="M33.9785 16.7402H15.0215C14.7103 16.7402 14.419 16.8167 14.1554 16.9428L24.4551 27.2425L26.7636 25.0239C26.7636 25.0239 26.7637 25.0237 26.7638 25.0236C26.7638 25.0235 26.764 25.0234 26.764 25.0234L34.8449 16.943C34.5813 16.8168 34.2898 16.7402 33.9785 16.7402Z" fill="#0D4C93"/>
<path d="M35.7977 17.896L28.1932 25.5001L35.7974 33.1043C35.9235 32.8408 36 32.5495 36 32.2383V18.7617C36 18.4507 35.9237 18.1595 35.7977 17.896Z" fill="#0D4C93"/>
<path d="M13.2026 17.8955C13.0765 18.1591 13 18.4504 13 18.7616V32.2381C13 32.5491 13.0764 32.8405 13.2024 33.1039L20.8069 25.4998L13.2026 17.8955Z" fill="#0D4C93"/>
<path d="M27.2403 26.4532L24.9315 28.672C24.7999 28.8037 24.6275 28.8695 24.4551 28.8695C24.2828 28.8695 24.1103 28.8037 23.9787 28.672L21.7598 26.4531L14.1551 34.0573C14.4187 34.1835 14.7102 34.2601 15.0215 34.2601H33.9785C34.2897 34.2601 34.581 34.1836 34.8446 34.0575L27.2403 26.4532Z" fill="#0D4C93"/>
</g>
<defs>
<clipPath id="clip0_5004_2">
<rect width="23" height="23" fill="white" transform="translate(13 14)"/>
</clipPath>
</defs>
</svg>
