<svg width="50" height="50" viewBox="0 0 50 50" fill="none" xmlns="http://www.w3.org/2000/svg">
<rect width="50" height="50" rx="25" fill="white"/>
<path d="M16.7293 29.9273C13.0907 26.2885 13.0907 20.3678 16.7293 16.7291C20.3681 13.0903 26.2887 13.0903 29.9274 16.7291C33.0144 19.816 33.4819 24.4072 31.3312 27.9924C31.3312 27.9924 31.1768 28.2515 31.3854 28.46C32.5757 29.6503 36.1468 33.2214 36.1468 33.2214C37.0945 34.1691 37.3201 35.4942 36.4797 36.3348L36.335 36.4793C35.4946 37.3199 34.1694 37.0944 33.2217 36.1467C33.2217 36.1467 29.6582 32.5831 28.4703 31.3953C28.2517 31.1766 27.9926 31.3311 27.9926 31.3311C24.4075 33.4817 19.8163 33.0143 16.7293 29.9273ZM28.2045 28.2043C30.8931 25.5156 30.8931 21.1409 28.2044 18.4522C25.5157 15.7636 21.141 15.7636 18.4524 18.4522C15.7638 21.1408 15.7638 25.5156 18.4524 28.2043C21.1411 30.8928 25.5157 30.8928 28.2045 28.2043Z" fill="#0D4C93"/>
<path d="M27.6087 22.7745C27.7339 22.7745 27.8611 22.7499 27.9837 22.6981C28.4735 22.4908 28.7027 21.9256 28.4954 21.4357C27.1924 18.3565 23.6273 16.9115 20.5482 18.2145C20.0583 18.4218 19.8292 18.987 20.0365 19.4769C20.2439 19.9668 20.8089 20.1958 21.2989 19.9886C23.3998 19.0996 25.8324 20.0856 26.7212 22.1864C26.8768 22.5538 27.2334 22.7745 27.6087 22.7745Z" fill="#0D4C93"/>
</svg>
